<svg xmlns="http://www.w3.org/2000/svg"><path fill="#32373c" d="M-.1 0h256v256H-.1z"/><path fill="#ccc" d="M183.78125 113.65625c-2.08161.00003-4.00249.37976-5.75 1.125-1.74753.71959-3.24077 1.71508-4.5 3-1.23355 1.28496-2.21794 2.815-2.9375 4.5625-.69387 1.74754-1.03126 3.62606-1.03125 5.65625-.00001 2.03022.33738 3.90874 1.03125 5.65625.71956 1.74752 1.70395 3.27757 2.9375 4.5625 1.25923 1.28495 2.75247 2.28599 4.5 3.03125 1.74751.71957 3.66839 1.09375 5.75 1.09375 2.08158 0 4.00247-.37418 5.75-1.09375 1.74749-.74526 3.23519-1.7463 4.46875-3.03125 1.25921-1.28493 2.24361-2.81498 2.9375-4.5625.71953-1.74751 1.06249-3.62603 1.0625-5.65625-.00001-2.03019-.34297-3.90871-1.0625-5.65625-.69389-1.7475-1.67829-3.27754-2.9375-4.5625-1.23356-1.28492-2.72126-2.28041-4.46875-3-1.74753-.74524-3.66842-1.12497-5.75-1.125zm-126 .6875l8 27.3125h3.875L76.25 119.375h.09375l6.625 22.28125h3.875l7.9375-27.3125H90.9375l-6 21.84375h-.09375l-6.4375-21.84375H74.1875L67.75 136.1875h-.09375l-6-21.84375h-3.875zm40.59375 0v27.3125h3.6875V129.625h5.90625c1.7475.00002 3.18173-.22491 4.3125-.6875 1.13072-.48827 2.01376-1.09292 2.65625-1.8125.66815-.74525 1.14924-1.56928 1.40625-2.46875.25696-.92514.37498-1.80817.375-2.65625-.00002-.84804-.11804-1.72552-.375-2.625-.25701-.92513-.7381-1.74916-1.40625-2.46875-.64249-.74524-1.52553-1.3499-2.65625-1.8125-1.13077-.48825-2.565-.74997-4.3125-.75H98.375zm22.875 0v27.3125h3.71875v-12.5H139.125v12.5h3.6875v-27.3125h-3.6875v11.34375h-14.15625v-11.34375H121.25zm28.5625 0l-.3125 14.375c.92516-.46257 1.9151-.79994 2.96875-1.03125 1.07935-.25697 1.96237-.37498 2.65625-.375 1.9531.00002 3.54214.49776 4.75 1.5 1.23353.97657 1.84374 2.46426 1.84375 4.46875-.00001.87377-.15482 1.64989-.4375 2.34375-.2827.69388-.66799 1.29298-1.15625 1.78125-.46259.46258-1.01935.83677-1.6875 1.09375-.64248.257-1.31169.37501-2.03125.375-1.23355.00001-2.2714-.27282-3.09375-.8125-.82237-.56537-1.48048-1.49076-1.96875-2.75l-3.75 1.28125c.64247 1.77322 1.72822 3.1429 3.21875 4.09375s3.14968 1.40625 5 1.40625c1.33632 0 2.59355-.18257 3.75-.59375 1.15644-.43688 2.15748-1.04709 3.03125-1.84375.87375-.79666 1.5742-1.76995 2.0625-2.875.51396-1.10504.74998-2.32545.75-3.6875-.00002-1.33632-.21384-2.55119-.625-3.65625-.3855-1.10503-.94225-2.07833-1.6875-2.875-.74528-.79665-1.63387-1.40685-2.6875-1.84375-1.02797-.43686-2.18382-.65623-3.46875-.65625-.2313 0-.50968.006-.84375.0312-.3341.0258-.70272.0736-1.0625.125-.33409.0514-.66592.1104-1 .1875-.33409.0771-.57012.1729-.75.25l.0937-6.84375h11.0625v-3.46875h-14.625zm33.96875 2.78125c1.56761.00002 2.99075.31521 4.25.90625 1.25923.5654 2.31928 1.33596 3.21875 2.3125.89943.97657 1.60545 2.13243 2.09375 3.46875.48827 1.31065.71873 2.69698.71875 4.1875-.00002 1.49054-.23048 2.91367-.71875 4.25-.4883 1.31065-1.19432 2.4297-2.09375 3.40625-.89947.97656-1.95952 1.78394-3.21875 2.375-1.25925.56538-2.68239.84376-4.25.84375-1.56764.00001-2.99078-.27837-4.25-.84375-1.25925-.59106-2.3193-1.39844-3.21875-2.375-.89946-.97655-1.60548-2.0956-2.09375-3.40625-.48828-1.33633-.71875-2.75946-.71875-4.25 0-1.49052.23047-2.87685.71875-4.1875.48827-1.33632 1.19429-2.49218 2.09375-3.46875.89945-.97654 1.9595-1.7471 3.21875-2.3125 1.25922-.59104 2.68236-.90623 4.25-.90625zm-81.71875.46875h4.875c.71955.00003 1.43112.059 2.125.1875.71955.10281 1.33531.31663 1.875.625.56536.3084 1.00964.7527 1.34375 1.34375.33407.5654.49999 1.32486.5 2.25-.00001.92517-.16594 1.65895-.5 2.25-.33411.56539-.77839 1.00413-1.34375 1.3125-.53969.3084-1.15545.52776-1.875.65625-.69388.1028-1.40545.15626-2.125.15625h-4.875v-8.78125z" /><path fill="#00b9eb" d="M216.49800277 138.58669537l-11.50199951-11.1300507 23.00399903-4.2e-7z"/><path fill="#ccc" d="M28 83.46875v45h21v-1H29v-44h-1z"/></svg>